<mxfile host="app.diagrams.net" modified="2024-09-24T17:50:40.982Z" agent="Mozilla/5.0 (Macintosh; Intel Mac OS X 10_15_7) AppleWebKit/537.36 (KHTML, like Gecko) Chrome/128.0.0.0 Safari/537.36" version="24.4.6" etag="83HjCFrQinhMyeTkqY48" type="github">
  <diagram name="Page-1" id="mH7mMKQYWZD-4E3JguwJ">
    <mxGraphModel>
      <root>
        <mxCell id="0" />
        <mxCell id="1" parent="0" />
      </root>
    </mxGraphModel>
  </diagram>
</mxfile>
